<svg xmlns="http://www.w3.org/2000/svg" xmlns:xlink="http://www.w3.org/1999/xlink" width="442.26" height="147.96"><path fill="#75975e" d="M40.98 119.16L40.98 119.16Q36.84 119.16 33.81 118.29Q30.78 117.42 28.77 116.58Q26.76 115.74 25.38 115.74L25.38 115.74Q23.94 115.74 22.77 116.31Q21.60 116.88 20.49 117.60Q19.38 118.32 18.21 118.92Q17.04 119.52 15.78 119.52L15.78 119.52Q13.92 119.52 12.75 118.44Q11.58 117.36 11.16 114.90L11.16 114.90L7.74 94.20Q7.50 92.52 8.28 91.29Q9.06 90.06 10.86 89.40L10.86 89.40Q12.90 88.68 14.40 89.43Q15.90 90.18 16.98 92.34L16.98 92.34Q20.82 99.54 24.42 103.50Q28.02 107.46 31.59 109.02Q35.16 110.58 38.94 110.58L38.94 110.58Q43.92 110.58 46.95 108.24Q49.98 105.90 49.98 101.64L49.98 101.64Q49.98 98.70 48.54 96.51Q47.10 94.32 42.84 92.28Q38.58 90.24 30.12 87.78L30.12 87.78Q20.76 85.02 15.09 81.15Q9.42 77.28 6.90 71.70Q4.38 66.12 4.38 58.44L4.38 58.44Q4.38 50.70 8.16 44.67Q11.94 38.64 18.96 35.22Q25.98 31.80 35.46 31.80L35.46 31.80Q40.32 31.80 43.77 32.64Q47.22 33.48 49.65 34.35Q52.08 35.22 53.88 35.22L53.88 35.22Q55.38 35.22 56.58 34.29Q57.78 33.36 59.16 32.40Q60.54 31.44 62.52 31.44L62.52 31.44Q64.44 31.44 65.73 32.64Q67.02 33.84 67.92 37.20L67.92 37.20L73.32 57.12Q73.92 59.28 73.14 60.96Q72.36 62.64 70.44 63.30L70.44 63.30Q68.46 63.90 66.96 63.15Q65.46 62.40 64.44 60.54L64.44 60.54Q60.54 52.86 56.16 48.45Q51.78 44.04 47.37 42.21Q42.96 40.38 38.82 40.38L38.82 40.38Q34.08 40.38 31.44 43.02Q28.80 45.66 28.80 49.80L28.80 49.80Q28.80 52.50 30.15 54.72Q31.50 56.94 35.64 59.22Q39.78 61.50 48.12 64.44L48.12 64.44Q57.30 67.62 62.85 71.49Q68.40 75.36 70.89 80.49Q73.38 85.62 73.38 92.58L73.38 92.58Q73.38 99.96 69.48 105.99Q65.58 112.02 58.35 115.59Q51.12 119.16 40.98 119.16ZM101.94 33.36L101.94 33.36L142.62 33.36Q145.32 33.36 147.27 32.88Q149.22 32.40 150.75 31.95Q152.28 31.50 153.84 31.50L153.84 31.50Q156.66 31.50 158.07 32.88Q159.48 34.26 160.38 37.56L160.38 37.56L164.22 57.72Q164.70 60.06 163.83 61.53Q162.96 63 160.92 63.36L160.92 63.36Q159.06 63.78 157.62 63.12Q156.18 62.46 155.22 60.48L155.22 60.48Q151.62 53.28 149.04 49.35Q146.46 45.42 144.21 43.83Q141.96 42.24 139.20 42.24L139.20 42.24L136.20 42.24L136.20 104.28Q136.20 105.78 136.98 106.71Q137.76 107.64 139.26 108.18L139.26 108.18L141.54 109.02Q144.60 110.22 144.60 113.40L144.60 113.40Q144.60 117.36 139.56 117.36L139.56 117.36L105 117.36Q102.42 117.36 101.19 116.28Q99.96 115.20 99.96 113.40L99.96 113.40Q99.96 110.22 103.02 109.02L103.02 109.02L105.36 108.18Q106.92 107.64 107.67 106.71Q108.42 105.78 108.42 104.28L108.42 104.28L108.42 42.24L105.36 42.24Q102.66 42.24 100.38 43.83Q98.10 45.42 95.55 49.38Q93 53.34 89.40 60.48L89.40 60.48Q88.38 62.46 86.94 63.12Q85.50 63.78 83.64 63.36L83.64 63.36Q81.66 63 80.79 61.53Q79.92 60.06 80.34 57.72L80.34 57.72L84.18 37.56Q85.08 34.26 86.49 32.88Q87.90 31.50 90.78 31.50L90.78 31.50Q92.28 31.50 93.81 31.95Q95.34 32.40 97.29 32.88Q99.24 33.36 101.94 33.36ZM183.60 90.42L183.72 81.72L218.58 81.72L218.64 90.42L183.60 90.42ZM193.26 113.40L193.26 113.40Q193.26 115.20 192.06 116.28Q190.86 117.36 188.28 117.36L188.28 117.36L169.02 117.36Q166.50 117.36 165.27 116.28Q164.04 115.20 164.04 113.40L164.04 113.40Q164.04 112.08 164.64 111.18Q165.24 110.28 166.68 109.38L166.68 109.38L167.94 108.60Q169.92 107.40 171.06 105.60Q172.20 103.80 173.52 99.42L173.52 99.42L188.94 49.56Q190.02 46.02 189.72 44.40Q189.42 42.78 187.26 41.76L187.26 41.76Q185.58 40.92 184.89 39.87Q184.20 38.82 184.20 37.32L184.20 37.32Q184.20 35.46 185.46 34.41Q186.72 33.36 189.30 33.36L189.30 33.36L227.70 33.36Q230.28 33.36 231.51 34.41Q232.74 35.46 232.74 37.32L232.74 37.32Q232.74 38.94 231.99 39.96Q231.24 40.98 229.86 41.64L229.86 41.64Q228.36 42.36 228.09 43.56Q227.82 44.76 228.66 47.40L228.66 47.40L245.34 100.26Q246.60 104.22 247.62 106.08Q248.64 107.94 250.26 108.72L250.26 108.72Q252.36 109.80 253.05 110.79Q253.74 111.78 253.74 113.40L253.74 113.40Q253.74 115.20 252.51 116.28Q251.28 117.36 248.70 117.36L248.70 117.36L216.96 117.36Q214.32 117.36 213.12 116.28Q211.92 115.20 211.92 113.40L211.92 113.40Q211.92 111.90 212.67 111Q213.42 110.10 214.98 109.38L214.98 109.38L216.90 108.48Q218.46 107.76 218.25 106.56Q218.04 105.36 217.20 102.60L217.20 102.60L199.44 43.86L201.96 42L184.68 97.92Q183.72 100.98 183.72 102.87Q183.72 104.76 184.89 106.05Q186.06 107.34 188.64 108.66L188.64 108.66L190.26 109.50Q191.64 110.22 192.45 111.06Q193.26 111.90 193.26 113.40ZM297.60 119.16L297.60 119.16Q293.46 119.16 290.43 118.29Q287.40 117.42 285.39 116.58Q283.38 115.74 282 115.74L282 115.74Q280.56 115.74 279.39 116.31Q278.22 116.88 277.11 117.60Q276 118.32 274.83 118.92Q273.66 119.52 272.40 119.52L272.40 119.52Q270.54 119.52 269.37 118.44Q268.20 117.36 267.78 114.90L267.78 114.90L264.36 94.20Q264.12 92.52 264.90 91.29Q265.68 90.06 267.48 89.40L267.48 89.40Q269.52 88.68 271.02 89.43Q272.52 90.18 273.60 92.34L273.60 92.34Q277.44 99.54 281.04 103.50Q284.64 107.46 288.21 109.02Q291.78 110.58 295.56 110.58L295.56 110.58Q300.54 110.58 303.57 108.24Q306.60 105.90 306.60 101.64L306.60 101.64Q306.60 98.70 305.16 96.51Q303.72 94.32 299.46 92.28Q295.20 90.24 286.74 87.78L286.74 87.78Q277.38 85.02 271.71 81.15Q266.04 77.28 263.52 71.70Q261 66.12 261 58.44L261 58.44Q261 50.70 264.78 44.67Q268.56 38.64 275.58 35.22Q282.60 31.80 292.08 31.80L292.08 31.80Q296.94 31.80 300.39 32.64Q303.84 33.48 306.27 34.35Q308.70 35.22 310.50 35.22L310.50 35.22Q312 35.22 313.20 34.29Q314.40 33.36 315.78 32.40Q317.16 31.44 319.14 31.44L319.14 31.44Q321.06 31.44 322.35 32.64Q323.64 33.84 324.54 37.20L324.54 37.20L329.94 57.12Q330.54 59.28 329.76 60.96Q328.98 62.64 327.06 63.30L327.06 63.30Q325.08 63.90 323.58 63.15Q322.08 62.40 321.06 60.54L321.06 60.54Q317.16 52.86 312.78 48.45Q308.40 44.04 303.99 42.21Q299.58 40.38 295.44 40.38L295.44 40.38Q290.70 40.38 288.06 43.02Q285.42 45.66 285.42 49.80L285.42 49.80Q285.42 52.50 286.77 54.72Q288.12 56.94 292.26 59.22Q296.40 61.50 304.74 64.44L304.74 64.44Q313.92 67.62 319.47 71.49Q325.02 75.36 327.51 80.49Q330 85.62 330 92.58L330 92.58Q330 99.96 326.10 105.99Q322.20 112.02 314.97 115.59Q307.74 119.16 297.60 119.16ZM359.64 82.02L359.64 73.26L410.34 73.26L410.34 82.02L359.64 82.02ZM375.78 46.44L375.78 104.28Q375.78 105.78 376.56 106.71Q377.34 107.64 378.84 108.18L378.84 108.18L381.12 109.02Q384.18 110.22 384.18 113.40L384.18 113.40Q384.18 115.20 382.95 116.28Q381.72 117.36 379.14 117.36L379.14 117.36L344.64 117.36Q342.06 117.36 340.83 116.28Q339.60 115.20 339.60 113.40L339.60 113.40Q339.60 110.22 342.66 109.02L342.66 109.02L344.94 108.18Q346.50 107.64 347.25 106.71Q348 105.78 348 104.28L348 104.28L348 46.44Q348 44.94 347.25 44.01Q346.50 43.08 344.94 42.54L344.94 42.54L342.66 41.70Q339.60 40.50 339.60 37.32L339.60 37.32Q339.60 35.46 340.83 34.41Q342.06 33.36 344.64 33.36L344.64 33.36L379.14 33.36Q381.72 33.36 382.95 34.41Q384.18 35.46 384.18 37.32L384.18 37.32Q384.18 40.50 381.12 41.70L381.12 41.70L378.84 42.54Q377.34 43.08 376.56 44.01Q375.78 44.94 375.78 46.44L375.78 46.44ZM428.52 46.44L428.52 104.28Q428.52 105.78 429.30 106.71Q430.08 107.64 431.58 108.18L431.58 108.18L433.86 109.02Q436.92 110.22 436.92 113.40L436.92 113.40Q436.92 115.20 435.69 116.28Q434.46 117.36 431.88 117.36L431.88 117.36L397.32 117.36Q394.74 117.36 393.51 116.28Q392.28 115.20 392.28 113.40L392.28 113.40Q392.28 110.22 395.34 109.02L395.34 109.02L397.68 108.18Q399.24 107.64 399.99 106.71Q400.74 105.78 400.74 104.28L400.74 104.28L400.74 46.44Q400.74 44.94 399.99 44.01Q399.24 43.08 397.68 42.54L397.68 42.54L395.34 41.70Q392.28 40.50 392.28 37.32L392.28 37.32Q392.28 35.46 393.51 34.41Q394.74 33.36 397.32 33.36L397.32 33.36L431.88 33.36Q434.46 33.36 435.69 34.41Q436.92 35.46 436.92 37.32L436.92 37.32Q436.92 40.50 433.86 41.70L433.86 41.70L431.58 42.54Q430.08 43.08 429.30 44.01Q428.52 44.94 428.52 46.44L428.52 46.44Z"/></svg>